<svg xmlns="http://www.w3.org/2000/svg" viewBox="0 0 512 512" width="512" height="512"
     role="img" aria-label="Tare">
  <title>Tare</title>
  <desc>Maskable variant. Mark held inside the centre 80 percent safe zone.</desc>
  <defs><linearGradient id="g" x1="0" y1="0" x2="1" y2="1"><stop offset="0" stop-color="#241a52"/><stop offset="1" stop-color="#0d0a1e"/></linearGradient></defs>
  <rect width="512" height="512" rx="0" fill="url(#g)"/>
  <rect x="192.4" y="193.8" width="14.8" height="111.0" rx="3.0" fill="#7048d8"/><rect x="213.1" y="233.8" width="8.1" height="71.0" rx="3.0" fill="#2a78d6"/><rect x="227.1" y="162.8" width="19.2" height="142.1" rx="3.0" fill="#12946a"/><rect x="252.3" y="213.1" width="8.1" height="91.8" rx="3.0" fill="#178c2e"/><rect x="269.3" y="148.0" width="14.8" height="156.9" rx="3.0" fill="#b07b00"/><rect x="290.0" y="196.8" width="8.1" height="108.0" rx="3.0" fill="#d9541f"/><rect x="304.1" y="222.0" width="19.2" height="82.9" rx="3.0" fill="#d6437f"/><path d="M143.5 304.8 H368.5 c-10.4 40.0 -54.8 62.2 -112.5 62.2 s-102.1 -22.2 -112.5 -62.2 Z" fill="#ffffff"/><rect x="242.7" y="365.5" width="26.6" height="19.2" rx="3.0" fill="#ffffff" opacity=".85"/>
</svg>
